<svg xmlns="http://www.w3.org/2000/svg" xmlns:xlink="http://www.w3.org/1999/xlink" viewBox="0 0 154 18"><defs><style>.cls-1{fill:#3fa9f5;}.cls-2{fill:#009fe8;}.cls-3{fill:#aacc03;}</style><symbol id="icon" data-name="icon" viewBox="0 0 21.63 15.68"><path id="_398421296" data-name=" 398421296" class="cls-1" d="M21.63,2.67c-.49-.24-1-.46-1.43-.65V13.76A12,12,0,0,0,11,15.67a13.25,13.25,0,0,1,10.61-.24V2.67Z"/><path id="_398421296-2" data-name=" 398421296" class="cls-1" d="M0,2.67C.49,2.43,1,2.21,1.43,2V13.76a12,12,0,0,1,9.18,1.91A13.25,13.25,0,0,0,0,15.43V2.67Z"/><path id="_399633992" data-name=" 399633992" class="cls-1" d="M19.23,0c-3.55.15-4.24.57-4.9,1.05-.36.5-.47.66-.8,1.2A8.35,8.35,0,0,1,17.8,1V11.78A10.18,10.18,0,0,0,11,15.06c0,.14-.05.28-.07.42a11.59,11.59,0,0,1,8.32-2.71V0Z"/><path class="cls-1" d="M2.4,0C6,.15,6.64.57,7.3,1.05c.36.5.48.66.81,1.2A8.41,8.41,0,0,0,3.83,1V11.78a10.14,10.14,0,0,1,6.82,3.28c0,.14,0,.28.08.42A11.63,11.63,0,0,0,2.4,12.77V0Z"/></symbol><symbol id="logo_and_title" data-name="logo_and_title" viewBox="0 0 151.91 17.04"><g id="文字"><g id="Open"><path class="cls-2" d="M28.28,2.05C29.28,1,30.45.43,32.59.43a5.29,5.29,0,0,1,4.35,1.65,7.84,7.84,0,0,1,1.6,5.38c0,2.22-.41,4.07-1.63,5.41-.95,1.07-2.14,1.62-4.32,1.62a5.24,5.24,0,0,1-4.34-1.64,7.85,7.85,0,0,1-1.61-5.39A7.71,7.71,0,0,1,28.28,2.05Zm4.31,10.51c3,0,3-3.46,3-5.1s-.08-5.1-3-5.1-3,3.46-3,5.1S29.61,12.56,32.59,12.56Z"/><path class="cls-2" d="M42.87,5l.22.74a3.38,3.38,0,0,1,2.75-1.16c.95,0,4.18.37,4.18,5s-3.16,5-4.18,5a4.1,4.1,0,0,1-2.53-.81V17H40.78V7.46c0-.38-.07-.69-.64-.69h-.38V5Zm2.45,7.72c.44,0,2-.19,2-3.17s-1.51-3.17-2-3.17-2,.17-2,3.17S44.86,12.7,45.32,12.7Z"/><path class="cls-2" d="M54.3,9.94c.13,2.31,1.49,2.76,2.52,2.76A1.93,1.93,0,0,0,58.92,11h2c-.4,2.12-1.73,3.45-4.48,3.45a4.6,4.6,0,0,1-3.57-1.33,5.52,5.52,0,0,1-1.17-3.53c0-2.81,1.6-5.07,4.66-5.07,2.58,0,4.76,1.71,4.57,5.38Zm3.93-1.79c-.23-1-.78-1.79-1.9-1.79s-1.67.82-1.89,1.79Z"/><path class="cls-2" d="M71.59,14.08H69.06V8.2c0-.45,0-1.84-1.51-1.84a2.67,2.67,0,0,0-1.91,1.1v6.62H63.1V7.46c0-.38-.06-.69-.63-.69h-.38V5h3.07l.24.7a4.23,4.23,0,0,1,2.91-1.12c3.28,0,3.28,2.28,3.28,3.71Z"/></g><g id="パンフレット"><path class="cls-3" d="M74.46,13.07A19.45,19.45,0,0,0,77.52,4l-.78-.82.5-1.51,2.87.66a23.75,23.75,0,0,1-4.26,12.31Zm11.37,1.37c-1-5.65-2.12-8.39-4.25-12l1.7-1.1a40.47,40.47,0,0,1,2.73,5,42.54,42.54,0,0,1,2.1,6.44Zm2.1-11.82a1.6,1.6,0,1,1-3.16,0,1.6,1.6,0,1,1,3.16,0Zm-2.41,0a.9.9,0,0,0,.82,1,.92.92,0,0,0,.84-1,.84.84,0,1,0-1.66,0Z"/><path class="cls-3" d="M91.59,12.15c1.79-.5,6.33-1.8,8.79-8.55L102.11,5A17,17,0,0,1,98,11.61a15.82,15.82,0,0,1-7.73,4.07l-.68-3.85,1.48-.66Zm2.63-4.74a14.26,14.26,0,0,0-4.41-4.53L91,1.21a17.91,17.91,0,0,1,5,3.61Z"/><path class="cls-3" d="M103.67,13.55A13.75,13.75,0,0,0,110,9.46a11.37,11.37,0,0,0,2.21-5.25h-7.18c-.45,0-1.18,0-1.61.1V2c.4.05,1.18.1,1.61.1h7.48L113.25,1a6.57,6.57,0,0,1,2,1.74V4.34h-.65a13.28,13.28,0,0,1-3.2,7.24,15.29,15.29,0,0,1-6.86,4.09Z"/><path class="cls-3" d="M128.45,5.38a15.1,15.1,0,0,1-4.27,6.73,17.3,17.3,0,0,1-7,3.66L116.55,13c.13,0,.7-.22.81-.25v-9l-.93-.41V1.57l3.36-.3c0,.48-.09,1.4-.09,1.91v8.73c4.63-2,6.09-5.65,6.91-8Z"/><path class="cls-3" d="M131,9.77A19.07,19.07,0,0,0,130,5.18l1.51-.69a26.68,26.68,0,0,1,1.62,4.22Zm-.24,4.17A8.92,8.92,0,0,0,136,10.73a10.91,10.91,0,0,0,1.86-5L137.1,5l.45-1.31,2.8.46c-.24,1.89-.63,5.12-2.35,7.63a10.52,10.52,0,0,1-6.31,4.09ZM134,9a21.09,21.09,0,0,0-1.28-4.53l1.47-.77a30.84,30.84,0,0,1,1.88,4.14Z"/><path class="cls-3" d="M150.48,11.47a36.85,36.85,0,0,0-4.65-3.94v6.36c0,.46,0,1.4.08,1.91H143.4c0-.48.09-1.38.09-1.91V3.32l-.93-.39V1.21L145.91,1c0,.47-.08,1.39-.08,1.9V5.13a44.47,44.47,0,0,1,6.08,3.46Z"/></g></g><use width="21.63" height="15.67" transform="scale(1.06)" xlink:href="#icon"/></symbol></defs><g id="logo_title"><use width="151.91" height="17.04" transform="translate(1.04 0.57)" xlink:href="#logo_and_title"/></g></svg>